# 3ds Max Wavefront OBJ Exporter v0.97b - (c)2007 guruware
# File Created: 14.02.2018 13:51:00

mtllib Specchio.mtl

#
# object Mirror_CS90S
#

v  -430.0000 880.0000 26.0000
v  -430.0000 20.0000 26.0000
v  430.0000 20.0000 26.0000
v  430.0000 880.0000 26.0000
v  430.0000 880.0000 20.0000
v  -430.0000 880.0000 20.0000
v  430.0000 20.0000 20.0000
v  -430.0000 20.0000 20.0000
# 8 vertices

vn -0.5774 0.5774 0.5774
vn -0.5774 -0.5774 0.5774
vn 0.5774 -0.5774 0.5774
vn 0.5774 0.5774 0.5774
vn 0.5774 0.5774 -0.5774
vn -0.5774 0.5774 -0.5774
vn 0.5774 -0.5774 -0.5774
vn -0.5774 -0.5774 -0.5774
# 8 vertex normals

o Mirror_CS90S
g Mirror_CS90S
usemtl wire_154215229
s 1
f 1//1 2//2 3//3 4//4 
s 2
f 1//1 4//4 5//5 6//6 
s 4
f 4//4 3//3 7//7 5//5 
s 2
f 3//3 2//2 8//8 7//7 
s 1
f 8//8 6//6 5//5 7//7 
s 4
f 2//2 1//1 6//6 8//8 
# 6 polygons

#
# object CS90S
#

v  430.0000 20.0000 -0.0000
v  -430.0000 20.0000 -0.0000
v  -430.0000 20.0000 10.0000
v  430.0000 20.0000 10.0000
v  450.0000 0.0000 150.0000
v  -450.0000 0.0000 150.0000
v  -450.0000 0.0000 -0.0000
v  450.0000 0.0000 -0.0000
v  430.0000 20.0000 20.0000
v  -430.0000 20.0000 20.0000
v  -430.0000 20.0000 130.0000
v  430.0000 20.0000 130.0000
v  -450.0000 900.0000 150.0000
v  -450.0000 900.0000 -0.0000
v  -430.0000 880.0000 130.0000
v  -430.0000 880.0000 20.0000
v  430.0000 880.0000 20.0000
v  430.0000 880.0000 130.0000
v  450.0000 900.0000 150.0000
v  450.0000 900.0000 -0.0000
v  430.0000 880.0000 -0.0000
v  -430.0000 880.0000 -0.0000
v  430.0000 880.0000 10.0000
v  -430.0000 880.0000 10.0000
# 24 vertices

vn -0.5774 0.5774 0.5774
vn 0.5774 0.5774 0.5774
vn 0.5774 0.5774 -0.5774
vn -0.5774 0.5774 -0.5774
vn 0.4835 -0.4835 0.7297
vn -0.4835 -0.4835 0.7297
vn -0.5774 -0.5774 -0.5774
vn 0.5774 -0.5774 -0.5774
vn 0.5789 0.5789 0.5743
vn -0.5789 0.5789 0.5743
vn -0.4835 0.4835 0.7297
vn 0.5789 -0.5789 0.5743
vn 0.5774 -0.5774 0.5774
vn -0.5774 -0.5774 0.5774
vn -0.5789 -0.5789 0.5743
vn 0.4835 0.4835 0.7297
# 16 vertex normals

o CS90S
g CS90S
usemtl wire_135059008
s 1
f 9//9 10//10 11//11 12//12 
f 13//13 14//14 15//15 16//16 
f 17//9 18//10 19//17 20//18 
s 2
f 20//18 19//17 14//14 13//13 
s 4
f 14//14 21//19 22//12 15//15 
s 8
f 19//17 23//20 21//19 14//14 
s 4
f 18//10 24//21 23//20 19//17 
s 2
f 17//9 25//22 24//21 18//10 
s 4
f 20//18 26//23 25//22 17//9 
s 8
f 13//13 27//24 26//23 20//18 
s 4
f 16//16 28//11 27//24 13//13 
s 2
f 16//16 15//15 22//12 10//10 
f 16//16 10//10 9//9 29//22 
f 16//16 29//22 30//21 28//11 
f 28//11 30//21 10//10 22//12 
s 4
f 12//12 31//15 29//22 9//9 
s 2
f 11//11 32//16 31//15 12//12 
s 4
f 10//10 30//21 32//16 11//11 
s 1
f 26//23 23//20 24//21 25//22 
s 2
f 27//24 21//19 23//20 26//23 
s 1
f 28//11 22//12 21//19 27//24 
f 31//15 32//16 30//21 29//22 
# 22 polygons

#
# object led_CS90S
#

v  -400.0000 880.0000 32.0000
v  -400.0000 875.0000 32.0000
v  -400.0000 875.0000 52.0000
v  -400.0000 880.0000 52.0000
v  400.0000 880.0000 32.0000
v  400.0000 875.0000 32.0000
v  400.0000 880.0000 52.0000
v  400.0000 875.0000 52.0000
# 8 vertices

vn -0.5774 0.5774 -0.5774
vn -0.5774 -0.5774 -0.5774
vn -0.5774 -0.5774 0.5774
vn -0.5774 0.5774 0.5774
vn 0.5774 0.5774 -0.5774
vn 0.5774 -0.5774 -0.5774
vn 0.5774 0.5774 0.5774
vn 0.5774 -0.5774 0.5774
# 8 vertex normals

o led_CS90S
g led_CS90S
usemtl wire_255255255
s 1
f 33//25 34//26 35//27 36//28 
s 2
f 37//29 38//30 34//26 33//25 
s 1
f 39//31 40//32 38//30 37//29 
s 2
f 36//28 35//27 40//32 39//31 
s 4
f 40//32 35//27 34//26 38//30 
f 36//28 39//31 37//29 33//25 
# 6 polygons

